<svg width="16" height="16" viewBox="0 0 16 16" fill="none" xmlns="http://www.w3.org/2000/svg">
<path d="M8 9.5C9.06026 9.5 10.104 9.62415 11.1318 9.87305C12.1576 10.1215 13.1708 10.4942 14.1699 10.9932V10.9941C14.5704 11.2013 14.8915 11.5 15.1367 11.8994C15.3791 12.2942 15.5 12.7244 15.5 13.2002V15.5H0.5V13.2002C0.5 12.7244 0.620925 12.2942 0.863281 11.8994C1.10852 11.5 1.4287 11.2003 1.8291 10.9932C2.82852 10.494 3.84208 10.1216 4.86816 9.87305C5.89603 9.62415 6.93974 9.5 8 9.5ZM8 10.5C7.02605 10.5 6.0607 10.6171 5.10547 10.8516C4.15052 11.086 3.20733 11.4369 2.27637 11.9023L2.2666 11.9072L2.25684 11.9131C2.02961 12.0394 1.84641 12.2178 1.71094 12.4395C1.56922 12.6714 1.5 12.929 1.5 13.2002V14.5H14.5V13.2002C14.5 12.929 14.4308 12.6714 14.2891 12.4395C14.1536 12.2178 13.9704 12.0394 13.7432 11.9131L13.7334 11.9072L13.7236 11.9023L13.374 11.7334C12.5567 11.3512 11.7302 11.0567 10.8945 10.8516C9.9393 10.6171 8.97395 10.5 8 10.5ZM8 0.5C8.96634 0.5 9.78137 0.838007 10.4717 1.52832C11.162 2.21863 11.5 3.03366 11.5 4C11.5 4.96634 11.162 5.78137 10.4717 6.47168C9.78137 7.16199 8.96634 7.5 8 7.5C7.03366 7.5 6.21863 7.16199 5.52832 6.47168C4.83801 5.78137 4.5 4.96634 4.5 4C4.5 3.03366 4.83801 2.21863 5.52832 1.52832C6.21863 0.838007 7.03366 0.5 8 0.5ZM8 1.5C7.31634 1.5 6.71906 1.74969 6.23438 2.23438C5.74969 2.71906 5.5 3.31634 5.5 4C5.5 4.68366 5.74969 5.28094 6.23438 5.76562C6.71906 6.25031 7.31634 6.5 8 6.5C8.68366 6.5 9.28094 6.25031 9.76562 5.76562C10.2503 5.28094 10.5 4.68366 10.5 4C10.5 3.31634 10.2503 2.71906 9.76562 2.23438C9.28094 1.74969 8.68366 1.5 8 1.5Z" fill="#8A38F5" stroke="#8A38F5"/>
</svg>
